<svg width="15" height="16" fill="none" xmlns="http://www.w3.org/2000/svg"><path fill-rule="evenodd" clip-rule="evenodd" d="M4.082 0c-.45 0-.816.352-.816.787v.787h-.817C1.097 1.574 0 2.632 0 3.936v9.447c0 1.304 1.097 2.362 2.45 2.362h9.796c1.352 0 2.449-1.058 2.449-2.362V3.936c0-1.304-1.097-2.362-2.45-2.362h-.816V.787c0-.435-.365-.787-.816-.787-.45 0-.816.352-.816.787v.787H4.898V.787C4.898.352 4.533 0 4.082 0zm6.531 3.149H2.449c-.45 0-.816.352-.816.787v.787h11.43v-.787c0-.435-.366-.787-.817-.787h-1.633zm-8.98 10.234V6.298h11.43v7.085c0 .435-.366.787-.817.787H2.449c-.45 0-.816-.352-.816-.787zM3.266 8.66c0-.435.365-.788.816-.788h1.633c.45 0 .816.353.816.788v1.574c0 .435-.365.787-.816.787H4.082c-.45 0-.816-.352-.816-.787V8.66z" fill="#8F8F8F"/></svg>