<svg width="21" height="13" xmlns="http://www.w3.org/2000/svg"><g opacity=".5"><path d="M20.784 6.512L21 6.155l-.216-.357c-.037-.06-.907-1.48-2.599-2.904C15.936 1.001 13.285 0 10.522 0c-2.764 0-5.42 1-7.683 2.893C1.138 4.316.258 5.735.221 5.795L0 6.155l.221.36c.037.06.917 1.48 2.618 2.903 2.262 1.892 4.919 2.892 7.683 2.892 2.764 0 5.414-1 7.663-2.894 1.692-1.423 2.562-2.844 2.599-2.904zM17.41 8.358c-2.062 1.662-4.38 2.504-6.89 2.504-2.512 0-4.838-.843-6.914-2.506a12.818 12.818 0 01-2.158-2.2 12.819 12.819 0 012.158-2.202c2.076-1.663 4.402-2.506 6.913-2.506 2.51 0 4.829.843 6.89 2.505a12.647 12.647 0 012.143 2.202 12.65 12.65 0 01-2.142 2.203z"/><path d="M10.5 2.172a3.987 3.987 0 00-3.983 3.983 3.987 3.987 0 003.983 3.983 3.987 3.987 0 003.983-3.983A3.987 3.987 0 0010.5 2.172zm0 6.518a2.537 2.537 0 01-2.534-2.535A2.537 2.537 0 0110.5 3.621a2.537 2.537 0 012.534 2.534A2.537 2.537 0 0110.5 8.69z"/></g></svg>